# MagicaVoxel @ Ephtracy

# group
o 

# material
mtllib MarioSpeedUp.mtl
usemtl palette

# normals
vn -1 0 0
vn 1 0 0
vn 0 0 1
vn 0 0 -1
vn 0 -1 0
vn 0 1 0

# texcoords
vt 0.970703 0.5
vt 0.974609 0.5
vt 0.982422 0.5
vt 0.986328 0.5
vt 0.990234 0.5

# verts
v -0.7 0.4 0.0999999
v -0.7 0.4 -0.1
v -0.7 0.9 0.0999999
v -0.7 0.9 -0.1
v -0.6 0.2 0.0999999
v -0.6 0.2 -0.1
v -0.6 0.4 0.0999999
v -0.6 0.4 -0.1
v -0.6 0.9 0.0999999
v -0.6 0.9 -0.1
v -0.6 1.1 0.0999999
v -0.6 1.1 -0.1
v -0.5 0.1 0.0999999
v -0.5 0.1 -0.1
v -0.5 0.2 0.0999999
v -0.5 0.2 -0.1
v -0.5 1.1 0.0999999
v -0.5 1.1 -0.1
v -0.5 1.2 0.0999999
v -0.5 1.2 -0.1
v -0.4 0 0.0999999
v -0.4 0 -0.1
v -0.4 0.1 0.0999999
v -0.4 0.1 -0.1
v -0.4 1.2 0.0999999
v -0.4 1.2 -0.1
v -0.4 1.3 0.0999999
v -0.4 1.3 -0.1
v -0.3 1.3 0.0999999
v -0.3 1.3 -0.1
v -0.3 1.4 0.0999999
v -0.3 1.4 -0.1
v -0.1 1.4 0.0999999
v -0.1 1.4 -0.1
v -0.1 1.5 0.0999999
v -0.1 1.5 -0.1
v 0.2 1.5 0.0999999
v 0.2 1.5 -0.1
v 0.2 1.6 0.0999999
v 0.2 1.6 -0.1
v 0.1 0 0.0999999
v 0.1 0 -0.1
v 0.1 0.1 0.0999999
v 0.1 0.1 -0.1
v 0.3 0.1 0.0999999
v 0.3 0.1 -0.1
v 0.3 0.2 0.0999999
v 0.3 0.2 -0.1
v 0.4 0.2 0.0999999
v 0.4 0.2 -0.1
v 0.4 0.3 0.0999999
v 0.4 0.3 -0.1
v 0.5 0.3 0.0999999
v 0.5 0.3 -0.1
v 0.5 0.5 0.0999999
v 0.5 0.5 -0.1
v 0.5 0.7 0.0999999
v 0.5 0.7 -0.1
v 0.5 0.8 0.0999999
v 0.5 0.8 -0.1
v 0.5 1 0.0999999
v 0.5 1 -0.1
v 0.5 1.1 0.0999999
v 0.5 1.1 -0.1
v 0.6 0.5 0.0999999
v 0.6 0.5 -0.1
v 0.6 0.7 0.0999999
v 0.6 0.7 -0.1
v 0.6 0.8 0.0999999
v 0.6 0.8 -0.1
v 0.6 1 0.0999999
v 0.6 1 -0.1
v 0.6 1.1 0.0999999
v 0.6 1.1 -0.1
v 0.6 1.2 0.0999999
v 0.6 1.2 -0.1
v 0.6 1.5 0.0999999
v 0.6 1.5 -0.1
v 0.6 1.6 0.0999999
v 0.6 1.6 -0.1
v 0.7 1.2 0.0999999
v 0.7 1.2 -0.1
v 0.7 1.5 0.0999999
v 0.7 1.5 -0.1
v -0.7 0.4 0.0999999
v -0.7 0.9 0.0999999
v -0.6 0.2 0.0999999
v -0.6 0.4 0.0999999
v -0.6 0.9 0.0999999
v -0.6 1.1 0.0999999
v -0.5 0.1 0.0999999
v -0.5 0.2 0.0999999
v -0.5 0.3 0.0999999
v -0.5 0.4 0.0999999
v -0.5 0.6 0.0999999
v -0.5 0.8 0.0999999
v -0.5 0.9 0.0999999
v -0.5 1.1 0.0999999
v -0.5 1.2 0.0999999
v -0.4 0 0.0999999
v -0.4 0.1 0.0999999
v -0.4 0.2 0.0999999
v -0.4 0.3 0.0999999
v -0.4 0.4 0.0999999
v -0.4 0.9 0.0999999
v -0.4 1.1 0.0999999
v -0.4 1.2 0.0999999
v -0.4 1.3 0.0999999
v -0.3 0.4 0.0999999
v -0.3 0.6 0.0999999
v -0.3 0.8 0.0999999
v -0.3 1 0.0999999
v -0.3 1.1 0.0999999
v -0.3 1.2 0.0999999
v -0.3 1.3 0.0999999
v -0.3 1.4 0.0999999
v -0.2 1.2 0.0999999
v -0.2 1.3 0.0999999
v -0.1 0.4 0.0999999
v -0.1 0.6 0.0999999
v -0.1 0.8 0.0999999
v -0.1 1 0.0999999
v -0.1 1.3 0.0999999
v -0.1 1.4 0.0999999
v -0.1 1.5 0.0999999
v 0.1 0 0.0999999
v 0.1 0.1 0.0999999
v 0.1 0.2 0.0999999
v 0.1 0.3 0.0999999
v 0.1 0.4 0.0999999
v 0.1 0.5 0.0999999
v 0.1 0.6 0.0999999
v 0.1 0.7 0.0999999
v 0.1 0.8 0.0999999
v 0.1 0.9 0.0999999
v 0.1 1 0.0999999
v 0.2 0.4 0.0999999
v 0.2 0.5 0.0999999
v 0.2 0.6 0.0999999
v 0.2 0.7 0.0999999
v 0.2 0.8 0.0999999
v 0.2 0.9 0.0999999
v 0.2 1 0.0999999
v 0.2 1.1 0.0999999
v 0.2 1.3 0.0999999
v 0.2 1.4 0.0999999
v 0.2 1.5 0.0999999
v 0.2 1.6 0.0999999
v 0.3 0.1 0.0999999
v 0.3 0.2 0.0999999
v 0.3 0.3 0.0999999
v 0.3 0.5 0.0999999
v 0.3 0.6 0.0999999
v 0.3 0.7 0.0999999
v 0.3 0.8 0.0999999
v 0.3 0.9 0.0999999
v 0.3 1 0.0999999
v 0.3 1.1 0.0999999
v 0.3 1.2 0.0999999
v 0.4 0.2 0.0999999
v 0.4 0.3 0.0999999
v 0.4 0.5 0.0999999
v 0.4 0.6 0.0999999
v 0.4 0.7 0.0999999
v 0.4 0.8 0.0999999
v 0.4 0.9 0.0999999
v 0.4 1 0.0999999
v 0.4 1.1 0.0999999
v 0.4 1.2 0.0999999
v 0.4 1.4 0.0999999
v 0.4 1.5 0.0999999
v 0.5 0.3 0.0999999
v 0.5 0.5 0.0999999
v 0.5 0.6 0.0999999
v 0.5 0.7 0.0999999
v 0.5 0.8 0.0999999
v 0.5 0.9 0.0999999
v 0.5 1 0.0999999
v 0.5 1.1 0.0999999
v 0.5 1.2 0.0999999
v 0.5 1.4 0.0999999
v 0.5 1.5 0.0999999
v 0.6 0.5 0.0999999
v 0.6 0.7 0.0999999
v 0.6 0.8 0.0999999
v 0.6 1 0.0999999
v 0.6 1.1 0.0999999
v 0.6 1.2 0.0999999
v 0.6 1.4 0.0999999
v 0.6 1.5 0.0999999
v 0.6 1.6 0.0999999
v 0.7 1.2 0.0999999
v 0.7 1.5 0.0999999
v -0.7 0.4 -0.1
v -0.7 0.9 -0.1
v -0.6 0.2 -0.1
v -0.6 0.4 -0.1
v -0.6 0.9 -0.1
v -0.6 1.1 -0.1
v -0.5 0.1 -0.1
v -0.5 0.2 -0.1
v -0.5 0.3 -0.1
v -0.5 0.4 -0.1
v -0.5 0.6 -0.1
v -0.5 0.8 -0.1
v -0.5 0.9 -0.1
v -0.5 1.1 -0.1
v -0.5 1.2 -0.1
v -0.4 0 -0.1
v -0.4 0.1 -0.1
v -0.4 0.2 -0.1
v -0.4 0.3 -0.1
v -0.4 0.4 -0.1
v -0.4 0.9 -0.1
v -0.4 1.1 -0.1
v -0.4 1.2 -0.1
v -0.4 1.3 -0.1
v -0.3 0.4 -0.1
v -0.3 0.6 -0.1
v -0.3 0.8 -0.1
v -0.3 1 -0.1
v -0.3 1.1 -0.1
v -0.3 1.2 -0.1
v -0.3 1.3 -0.1
v -0.3 1.4 -0.1
v -0.2 1.2 -0.1
v -0.2 1.3 -0.1
v -0.1 0.4 -0.1
v -0.1 0.6 -0.1
v -0.1 0.8 -0.1
v -0.1 1 -0.1
v -0.1 1.3 -0.1
v -0.1 1.4 -0.1
v -0.1 1.5 -0.1
v 0.1 0 -0.1
v 0.1 0.1 -0.1
v 0.1 0.2 -0.1
v 0.1 0.3 -0.1
v 0.1 0.4 -0.1
v 0.1 0.5 -0.1
v 0.1 0.6 -0.1
v 0.1 0.7 -0.1
v 0.1 0.8 -0.1
v 0.1 0.9 -0.1
v 0.1 1 -0.1
v 0.2 0.4 -0.1
v 0.2 0.5 -0.1
v 0.2 0.6 -0.1
v 0.2 0.7 -0.1
v 0.2 0.8 -0.1
v 0.2 0.9 -0.1
v 0.2 1 -0.1
v 0.2 1.1 -0.1
v 0.2 1.3 -0.1
v 0.2 1.4 -0.1
v 0.2 1.5 -0.1
v 0.2 1.6 -0.1
v 0.3 0.1 -0.1
v 0.3 0.2 -0.1
v 0.3 0.3 -0.1
v 0.3 0.5 -0.1
v 0.3 0.6 -0.1
v 0.3 0.7 -0.1
v 0.3 0.8 -0.1
v 0.3 0.9 -0.1
v 0.3 1 -0.1
v 0.3 1.1 -0.1
v 0.3 1.2 -0.1
v 0.4 0.2 -0.1
v 0.4 0.3 -0.1
v 0.4 0.5 -0.1
v 0.4 0.6 -0.1
v 0.4 0.7 -0.1
v 0.4 0.8 -0.1
v 0.4 0.9 -0.1
v 0.4 1 -0.1
v 0.4 1.1 -0.1
v 0.4 1.2 -0.1
v 0.4 1.4 -0.1
v 0.4 1.5 -0.1
v 0.5 0.3 -0.1
v 0.5 0.5 -0.1
v 0.5 0.6 -0.1
v 0.5 0.7 -0.1
v 0.5 0.8 -0.1
v 0.5 0.9 -0.1
v 0.5 1 -0.1
v 0.5 1.1 -0.1
v 0.5 1.2 -0.1
v 0.5 1.4 -0.1
v 0.5 1.5 -0.1
v 0.6 0.5 -0.1
v 0.6 0.7 -0.1
v 0.6 0.8 -0.1
v 0.6 1 -0.1
v 0.6 1.1 -0.1
v 0.6 1.2 -0.1
v 0.6 1.4 -0.1
v 0.6 1.5 -0.1
v 0.6 1.6 -0.1
v 0.7 1.2 -0.1
v 0.7 1.5 -0.1
v -0.4 0 0.0999999
v 0.1 0 0.0999999
v -0.4 0 -0.1
v 0.1 0 -0.1
v -0.5 0.1 0.0999999
v -0.4 0.1 0.0999999
v 0.1 0.1 0.0999999
v 0.3 0.1 0.0999999
v -0.5 0.1 -0.1
v -0.4 0.1 -0.1
v 0.1 0.1 -0.1
v 0.3 0.1 -0.1
v -0.6 0.2 0.0999999
v -0.5 0.2 0.0999999
v 0.3 0.2 0.0999999
v 0.4 0.2 0.0999999
v -0.6 0.2 -0.1
v -0.5 0.2 -0.1
v 0.3 0.2 -0.1
v 0.4 0.2 -0.1
v 0.4 0.3 0.0999999
v 0.5 0.3 0.0999999
v 0.4 0.3 -0.1
v 0.5 0.3 -0.1
v -0.7 0.4 0.0999999
v -0.6 0.4 0.0999999
v -0.7 0.4 -0.1
v -0.6 0.4 -0.1
v 0.5 0.5 0.0999999
v 0.6 0.5 0.0999999
v 0.5 0.5 -0.1
v 0.6 0.5 -0.1
v 0.5 0.8 0.0999999
v 0.6 0.8 0.0999999
v 0.5 0.8 -0.1
v 0.6 0.8 -0.1
v 0.5 1.1 0.0999999
v 0.6 1.1 0.0999999
v 0.5 1.1 -0.1
v 0.6 1.1 -0.1
v 0.6 1.2 0.0999999
v 0.7 1.2 0.0999999
v 0.6 1.2 -0.1
v 0.7 1.2 -0.1
v 0.5 0.7 0.0999999
v 0.6 0.7 0.0999999
v 0.5 0.7 -0.1
v 0.6 0.7 -0.1
v -0.7 0.9 0.0999999
v -0.6 0.9 0.0999999
v -0.7 0.9 -0.1
v -0.6 0.9 -0.1
v 0.5 1 0.0999999
v 0.6 1 0.0999999
v 0.5 1 -0.1
v 0.6 1 -0.1
v -0.6 1.1 0.0999999
v -0.5 1.1 0.0999999
v -0.6 1.1 -0.1
v -0.5 1.1 -0.1
v -0.5 1.2 0.0999999
v -0.4 1.2 0.0999999
v -0.5 1.2 -0.1
v -0.4 1.2 -0.1
v -0.4 1.3 0.0999999
v -0.3 1.3 0.0999999
v -0.4 1.3 -0.1
v -0.3 1.3 -0.1
v -0.3 1.4 0.0999999
v -0.1 1.4 0.0999999
v -0.3 1.4 -0.1
v -0.1 1.4 -0.1
v -0.1 1.5 0.0999999
v 0.2 1.5 0.0999999
v 0.6 1.5 0.0999999
v 0.7 1.5 0.0999999
v -0.1 1.5 -0.1
v 0.2 1.5 -0.1
v 0.6 1.5 -0.1
v 0.7 1.5 -0.1
v 0.2 1.6 0.0999999
v 0.6 1.6 0.0999999
v 0.2 1.6 -0.1
v 0.6 1.6 -0.1

# faces
f 3/2/1 2/2/1 1/2/1
f 4/2/1 2/2/1 3/2/1
f 7/2/1 6/2/1 5/2/1
f 8/2/1 6/2/1 7/2/1
f 11/2/1 10/2/1 9/2/1
f 12/2/1 10/2/1 11/2/1
f 15/2/1 14/2/1 13/2/1
f 16/2/1 14/2/1 15/2/1
f 19/2/1 18/2/1 17/2/1
f 20/2/1 18/2/1 19/2/1
f 23/2/1 22/2/1 21/2/1
f 24/2/1 22/2/1 23/2/1
f 27/2/1 26/2/1 25/2/1
f 28/2/1 26/2/1 27/2/1
f 31/2/1 30/2/1 29/2/1
f 32/2/1 30/2/1 31/2/1
f 35/2/1 34/2/1 33/2/1
f 36/2/1 34/2/1 35/2/1
f 39/2/1 38/2/1 37/2/1
f 40/2/1 38/2/1 39/2/1
f 41/2/2 42/2/2 43/2/2
f 43/2/2 42/2/2 44/2/2
f 45/2/2 46/2/2 47/2/2
f 47/2/2 46/2/2 48/2/2
f 49/2/2 50/2/2 51/2/2
f 51/2/2 50/2/2 52/2/2
f 53/2/2 54/2/2 55/2/2
f 55/2/2 54/2/2 56/2/2
f 57/2/2 58/2/2 59/2/2
f 59/2/2 58/2/2 60/2/2
f 61/2/2 62/2/2 63/2/2
f 63/2/2 62/2/2 64/2/2
f 65/2/2 66/2/2 67/2/2
f 67/2/2 66/2/2 68/2/2
f 69/2/2 70/2/2 71/2/2
f 71/2/2 70/2/2 72/2/2
f 73/2/2 74/2/2 75/2/2
f 75/2/2 74/2/2 76/2/2
f 77/2/2 78/2/2 79/2/2
f 79/2/2 78/2/2 80/2/2
f 81/2/2 82/2/2 83/2/2
f 83/2/2 82/2/2 84/2/2
f 88/2/3 86/2/3 85/2/3
f 89/2/3 86/2/3 88/2/3
f 92/2/3 88/2/3 87/2/3
f 93/2/3 88/2/3 92/2/3
f 94/5/3 89/5/3 88/5/3
f 94/2/3 88/2/3 93/2/3
f 95/5/3 89/5/3 94/5/3
f 96/5/3 89/5/3 95/5/3
f 97/2/3 90/2/3 89/2/3
f 97/5/3 89/5/3 96/5/3
f 98/2/3 90/2/3 97/2/3
f 101/2/3 92/2/3 91/2/3
f 102/4/3 93/4/3 92/4/3
f 102/2/3 92/2/3 101/2/3
f 103/5/3 94/5/3 93/5/3
f 103/4/3 93/4/3 102/4/3
f 104/1/3 95/1/3 94/1/3
f 104/5/3 94/5/3 103/5/3
f 105/1/3 97/1/3 96/1/3
f 105/5/3 98/5/3 97/5/3
f 106/2/3 99/2/3 98/2/3
f 106/5/3 98/5/3 105/5/3
f 107/2/3 99/2/3 106/2/3
f 109/1/3 95/1/3 104/1/3
f 109/1/3 104/1/3 103/1/3
f 110/3/3 96/3/3 95/3/3
f 110/1/3 95/1/3 109/1/3
f 111/1/3 105/1/3 96/1/3
f 111/3/3 96/3/3 110/3/3
f 111/1/3 106/1/3 105/1/3
f 112/1/3 106/1/3 111/1/3
f 113/5/3 107/5/3 106/5/3
f 113/1/3 106/1/3 112/1/3
f 114/2/3 108/2/3 107/2/3
f 114/5/3 107/5/3 113/5/3
f 115/2/3 108/2/3 114/2/3
f 117/1/3 113/1/3 112/1/3
f 117/1/3 114/1/3 113/1/3
f 117/5/3 115/5/3 114/5/3
f 118/2/3 116/2/3 115/2/3
f 118/5/3 115/5/3 117/5/3
f 119/1/3 109/1/3 103/1/3
f 119/3/3 110/3/3 109/3/3
f 119/3/3 112/3/3 111/3/3
f 119/3/3 111/3/3 110/3/3
f 120/3/3 112/3/3 119/3/3
f 121/3/3 112/3/3 120/3/3
f 122/1/3 118/1/3 117/1/3
f 122/3/3 112/3/3 121/3/3
f 122/1/3 117/1/3 112/1/3
f 123/2/3 116/2/3 118/2/3
f 123/1/3 118/1/3 122/1/3
f 124/2/3 116/2/3 123/2/3
f 126/2/3 101/2/3 100/2/3
f 127/4/3 102/4/3 101/4/3
f 127/2/3 101/2/3 126/2/3
f 128/5/3 103/5/3 102/5/3
f 128/4/3 102/4/3 127/4/3
f 129/1/3 120/1/3 119/1/3
f 129/5/3 103/5/3 128/5/3
f 129/1/3 119/1/3 103/1/3
f 130/1/3 120/1/3 129/1/3
f 131/1/3 120/1/3 130/1/3
f 132/3/3 121/3/3 120/3/3
f 132/1/3 120/1/3 131/1/3
f 133/3/3 121/3/3 132/3/3
f 134/1/3 122/1/3 121/1/3
f 134/3/3 121/3/3 133/3/3
f 134/1/3 123/1/3 122/1/3
f 135/1/3 123/1/3 134/1/3
f 136/1/3 123/1/3 135/1/3
f 137/1/3 131/1/3 130/1/3
f 137/5/3 130/5/3 129/5/3
f 138/4/3 132/4/3 131/4/3
f 138/1/3 131/1/3 137/1/3
f 139/5/3 133/5/3 132/5/3
f 139/4/3 132/4/3 138/4/3
f 140/1/3 135/1/3 134/1/3
f 140/5/3 133/5/3 139/5/3
f 140/1/3 134/1/3 133/1/3
f 141/1/3 135/1/3 140/1/3
f 142/5/3 136/5/3 135/5/3
f 142/1/3 135/1/3 141/1/3
f 143/1/3 123/1/3 136/1/3
f 143/5/3 136/5/3 142/5/3
f 144/1/3 123/1/3 143/1/3
f 145/5/3 124/5/3 123/5/3
f 145/1/3 123/1/3 144/1/3
f 146/2/3 125/2/3 124/2/3
f 146/5/3 124/5/3 145/5/3
f 147/2/3 125/2/3 146/2/3
f 149/2/3 128/2/3 127/2/3
f 150/4/3 129/4/3 128/4/3
f 150/2/3 128/2/3 149/2/3
f 151/5/3 138/5/3 137/5/3
f 151/4/3 129/4/3 150/4/3
f 151/5/3 137/5/3 129/5/3
f 152/2/3 139/2/3 138/2/3
f 152/5/3 138/5/3 151/5/3
f 153/4/3 140/4/3 139/4/3
f 153/2/3 139/2/3 152/2/3
f 154/5/3 141/5/3 140/5/3
f 154/4/3 140/4/3 153/4/3
f 155/2/3 142/2/3 141/2/3
f 155/5/3 141/5/3 154/5/3
f 156/4/3 143/4/3 142/4/3
f 156/2/3 142/2/3 155/2/3
f 157/5/3 144/5/3 143/5/3
f 157/4/3 143/4/3 156/4/3
f 158/1/3 145/1/3 144/1/3
f 158/5/3 144/5/3 157/5/3
f 158/1/3 146/1/3 145/1/3
f 159/1/3 146/1/3 158/1/3
f 160/2/3 151/2/3 150/2/3
f 161/4/3 152/4/3 151/4/3
f 161/2/3 151/2/3 160/2/3
f 162/5/3 153/5/3 152/5/3
f 162/4/3 152/4/3 161/4/3
f 163/2/3 154/2/3 153/2/3
f 163/5/3 153/5/3 162/5/3
f 164/4/3 155/4/3 154/4/3
f 164/2/3 154/2/3 163/2/3
f 165/5/3 156/5/3 155/5/3
f 165/4/3 155/4/3 164/4/3
f 166/2/3 157/2/3 156/2/3
f 166/5/3 156/5/3 165/5/3
f 167/4/3 158/4/3 157/4/3
f 167/2/3 157/2/3 166/2/3
f 168/5/3 159/5/3 158/5/3
f 168/4/3 158/4/3 167/4/3
f 169/1/3 146/1/3 159/1/3
f 169/5/3 159/5/3 168/5/3
f 170/5/3 147/5/3 146/5/3
f 170/1/3 146/1/3 169/1/3
f 171/2/3 148/2/3 147/2/3
f 171/5/3 147/5/3 170/5/3
f 172/2/3 162/2/3 161/2/3
f 173/4/3 163/4/3 162/4/3
f 173/2/3 162/2/3 172/2/3
f 174/5/3 164/5/3 163/5/3
f 174/4/3 163/4/3 173/4/3
f 175/2/3 165/2/3 164/2/3
f 175/5/3 164/5/3 174/5/3
f 176/4/3 166/4/3 165/4/3
f 176/2/3 165/2/3 175/2/3
f 177/5/3 167/5/3 166/5/3
f 177/4/3 166/4/3 176/4/3
f 178/2/3 168/2/3 167/2/3
f 178/5/3 167/5/3 177/5/3
f 179/4/3 169/4/3 168/4/3
f 179/2/3 168/2/3 178/2/3
f 180/5/3 170/5/3 169/5/3
f 180/4/3 169/4/3 179/4/3
f 181/4/3 171/4/3 170/4/3
f 181/5/3 170/5/3 180/5/3
f 182/2/3 148/2/3 171/2/3
f 182/4/3 171/4/3 181/4/3
f 183/2/3 174/2/3 173/2/3
f 183/2/3 175/2/3 174/2/3
f 184/2/3 175/2/3 183/2/3
f 185/2/3 177/2/3 176/2/3
f 185/2/3 178/2/3 177/2/3
f 186/2/3 178/2/3 185/2/3
f 187/2/3 180/2/3 179/2/3
f 188/4/3 181/4/3 180/4/3
f 188/2/3 180/2/3 187/2/3
f 189/2/3 182/2/3 181/2/3
f 189/4/3 181/4/3 188/4/3
f 190/2/3 148/2/3 182/2/3
f 190/2/3 182/2/3 189/2/3
f 191/2/3 148/2/3 190/2/3
f 192/2/3 189/2/3 188/2/3
f 192/2/3 190/2/3 189/2/3
f 193/2/3 190/2/3 192/2/3
f 194/2/4 195/2/4 197/2/4
f 197/2/4 195/2/4 198/2/4
f 196/2/4 197/2/4 201/2/4
f 201/2/4 197/2/4 202/2/4
f 197/5/4 198/5/4 203/5/4
f 202/2/4 197/2/4 203/2/4
f 203/5/4 198/5/4 204/5/4
f 204/5/4 198/5/4 205/5/4
f 198/2/4 199/2/4 206/2/4
f 205/5/4 198/5/4 206/5/4
f 206/2/4 199/2/4 207/2/4
f 200/2/4 201/2/4 210/2/4
f 201/4/4 202/4/4 211/4/4
f 210/2/4 201/2/4 211/2/4
f 202/5/4 203/5/4 212/5/4
f 211/4/4 202/4/4 212/4/4
f 203/1/4 204/1/4 213/1/4
f 212/5/4 203/5/4 213/5/4
f 205/1/4 206/1/4 214/1/4
f 206/5/4 207/5/4 214/5/4
f 207/2/4 208/2/4 215/2/4
f 214/5/4 207/5/4 215/5/4
f 215/2/4 208/2/4 216/2/4
f 213/1/4 204/1/4 218/1/4
f 212/1/4 213/1/4 218/1/4
f 204/3/4 205/3/4 219/3/4
f 218/1/4 204/1/4 219/1/4
f 205/1/4 214/1/4 220/1/4
f 219/3/4 205/3/4 220/3/4
f 214/1/4 215/1/4 220/1/4
f 220/1/4 215/1/4 221/1/4
f 215/5/4 216/5/4 222/5/4
f 221/1/4 215/1/4 222/1/4
f 216/2/4 217/2/4 223/2/4
f 222/5/4 216/5/4 223/5/4
f 223/2/4 217/2/4 224/2/4
f 221/1/4 222/1/4 226/1/4
f 222/1/4 223/1/4 226/1/4
f 223/5/4 224/5/4 226/5/4
f 224/2/4 225/2/4 227/2/4
f 226/5/4 224/5/4 227/5/4
f 212/1/4 218/1/4 228/1/4
f 218/3/4 219/3/4 228/3/4
f 220/3/4 221/3/4 228/3/4
f 219/3/4 220/3/4 228/3/4
f 228/3/4 221/3/4 229/3/4
f 229/3/4 221/3/4 230/3/4
f 226/1/4 227/1/4 231/1/4
f 230/3/4 221/3/4 231/3/4
f 221/1/4 226/1/4 231/1/4
f 227/2/4 225/2/4 232/2/4
f 231/1/4 227/1/4 232/1/4
f 232/2/4 225/2/4 233/2/4
f 209/2/4 210/2/4 235/2/4
f 210/4/4 211/4/4 236/4/4
f 235/2/4 210/2/4 236/2/4
f 211/5/4 212/5/4 237/5/4
f 236/4/4 211/4/4 237/4/4
f 228/1/4 229/1/4 238/1/4
f 237/5/4 212/5/4 238/5/4
f 212/1/4 228/1/4 238/1/4
f 238/1/4 229/1/4 239/1/4
f 239/1/4 229/1/4 240/1/4
f 229/3/4 230/3/4 241/3/4
f 240/1/4 229/1/4 241/1/4
f 241/3/4 230/3/4 242/3/4
f 230/1/4 231/1/4 243/1/4
f 242/3/4 230/3/4 243/3/4
f 231/1/4 232/1/4 243/1/4
f 243/1/4 232/1/4 244/1/4
f 244/1/4 232/1/4 245/1/4
f 239/1/4 240/1/4 246/1/4
f 238/5/4 239/5/4 246/5/4
f 240/4/4 241/4/4 247/4/4
f 246/1/4 240/1/4 247/1/4
f 241/5/4 242/5/4 248/5/4
f 247/4/4 241/4/4 248/4/4
f 243/1/4 244/1/4 249/1/4
f 248/5/4 242/5/4 249/5/4
f 242/1/4 243/1/4 249/1/4
f 249/1/4 244/1/4 250/1/4
f 244/5/4 245/5/4 251/5/4
f 250/1/4 244/1/4 251/1/4
f 245/1/4 232/1/4 252/1/4
f 251/5/4 245/5/4 252/5/4
f 252/1/4 232/1/4 253/1/4
f 232/5/4 233/5/4 254/5/4
f 253/1/4 232/1/4 254/1/4
f 233/2/4 234/2/4 255/2/4
f 254/5/4 233/5/4 255/5/4
f 255/2/4 234/2/4 256/2/4
f 236/2/4 237/2/4 258/2/4
f 237/4/4 238/4/4 259/4/4
f 258/2/4 237/2/4 259/2/4
f 246/5/4 247/5/4 260/5/4
f 259/4/4 238/4/4 260/4/4
f 238/5/4 246/5/4 260/5/4
f 247/2/4 248/2/4 261/2/4
f 260/5/4 247/5/4 261/5/4
f 248/4/4 249/4/4 262/4/4
f 261/2/4 248/2/4 262/2/4
f 249/5/4 250/5/4 263/5/4
f 262/4/4 249/4/4 263/4/4
f 250/2/4 251/2/4 264/2/4
f 263/5/4 250/5/4 264/5/4
f 251/4/4 252/4/4 265/4/4
f 264/2/4 251/2/4 265/2/4
f 252/5/4 253/5/4 266/5/4
f 265/4/4 252/4/4 266/4/4
f 253/1/4 254/1/4 267/1/4
f 266/5/4 253/5/4 267/5/4
f 254/1/4 255/1/4 267/1/4
f 267/1/4 255/1/4 268/1/4
f 259/2/4 260/2/4 269/2/4
f 260/4/4 261/4/4 270/4/4
f 269/2/4 260/2/4 270/2/4
f 261/5/4 262/5/4 271/5/4
f 270/4/4 261/4/4 271/4/4
f 262/2/4 263/2/4 272/2/4
f 271/5/4 262/5/4 272/5/4
f 263/4/4 264/4/4 273/4/4
f 272/2/4 263/2/4 273/2/4
f 264/5/4 265/5/4 274/5/4
f 273/4/4 264/4/4 274/4/4
f 265/2/4 266/2/4 275/2/4
f 274/5/4 265/5/4 275/5/4
f 266/4/4 267/4/4 276/4/4
f 275/2/4 266/2/4 276/2/4
f 267/5/4 268/5/4 277/5/4
f 276/4/4 267/4/4 277/4/4
f 268/1/4 255/1/4 278/1/4
f 277/5/4 268/5/4 278/5/4
f 255/5/4 256/5/4 279/5/4
f 278/1/4 255/1/4 279/1/4
f 256/2/4 257/2/4 280/2/4
f 279/5/4 256/5/4 280/5/4
f 270/2/4 271/2/4 281/2/4
f 271/4/4 272/4/4 282/4/4
f 281/2/4 271/2/4 282/2/4
f 272/5/4 273/5/4 283/5/4
f 282/4/4 272/4/4 283/4/4
f 273/2/4 274/2/4 284/2/4
f 283/5/4 273/5/4 284/5/4
f 274/4/4 275/4/4 285/4/4
f 284/2/4 274/2/4 285/2/4
f 275/5/4 276/5/4 286/5/4
f 285/4/4 275/4/4 286/4/4
f 276/2/4 277/2/4 287/2/4
f 286/5/4 276/5/4 287/5/4
f 277/4/4 278/4/4 288/4/4
f 287/2/4 277/2/4 288/2/4
f 278/5/4 279/5/4 289/5/4
f 288/4/4 278/4/4 289/4/4
f 279/4/4 280/4/4 290/4/4
f 289/5/4 279/5/4 290/5/4
f 280/2/4 257/2/4 291/2/4
f 290/4/4 280/4/4 291/4/4
f 282/2/4 283/2/4 292/2/4
f 283/2/4 284/2/4 292/2/4
f 292/2/4 284/2/4 293/2/4
f 285/2/4 286/2/4 294/2/4
f 286/2/4 287/2/4 294/2/4
f 294/2/4 287/2/4 295/2/4
f 288/2/4 289/2/4 296/2/4
f 289/4/4 290/4/4 297/4/4
f 296/2/4 289/2/4 297/2/4
f 290/2/4 291/2/4 298/2/4
f 297/4/4 290/4/4 298/4/4
f 291/2/4 257/2/4 299/2/4
f 298/2/4 291/2/4 299/2/4
f 299/2/4 257/2/4 300/2/4
f 297/2/4 298/2/4 301/2/4
f 298/2/4 299/2/4 301/2/4
f 301/2/4 299/2/4 302/2/4
f 305/2/5 304/2/5 303/2/5
f 306/2/5 304/2/5 305/2/5
f 311/2/5 308/2/5 307/2/5
f 312/2/5 308/2/5 311/2/5
f 313/2/5 310/2/5 309/2/5
f 314/2/5 310/2/5 313/2/5
f 319/2/5 316/2/5 315/2/5
f 320/2/5 316/2/5 319/2/5
f 321/2/5 318/2/5 317/2/5
f 322/2/5 318/2/5 321/2/5
f 325/2/5 324/2/5 323/2/5
f 326/2/5 324/2/5 325/2/5
f 329/2/5 328/2/5 327/2/5
f 330/2/5 328/2/5 329/2/5
f 333/2/5 332/2/5 331/2/5
f 334/2/5 332/2/5 333/2/5
f 337/2/5 336/2/5 335/2/5
f 338/2/5 336/2/5 337/2/5
f 341/2/5 340/2/5 339/2/5
f 342/2/5 340/2/5 341/2/5
f 345/2/5 344/2/5 343/2/5
f 346/2/5 344/2/5 345/2/5
f 347/2/6 348/2/6 349/2/6
f 349/2/6 348/2/6 350/2/6
f 351/2/6 352/2/6 353/2/6
f 353/2/6 352/2/6 354/2/6
f 355/2/6 356/2/6 357/2/6
f 357/2/6 356/2/6 358/2/6
f 359/2/6 360/2/6 361/2/6
f 361/2/6 360/2/6 362/2/6
f 363/2/6 364/2/6 365/2/6
f 365/2/6 364/2/6 366/2/6
f 367/2/6 368/2/6 369/2/6
f 369/2/6 368/2/6 370/2/6
f 371/2/6 372/2/6 373/2/6
f 373/2/6 372/2/6 374/2/6
f 375/2/6 376/2/6 379/2/6
f 379/2/6 376/2/6 380/2/6
f 377/2/6 378/2/6 381/2/6
f 381/2/6 378/2/6 382/2/6
f 383/2/6 384/2/6 385/2/6
f 385/2/6 384/2/6 386/2/6
