# MagicaVoxel @ Ephtracy

# group
o 

# material
mtllib MarioNenufar.mtl
usemtl palette

# normals
vn -1 0 0
vn 1 0 0
vn 0 0 1
vn 0 0 -1
vn 0 -1 0
vn 0 1 0

# texcoords
vt 0.970703 0.5
vt 0.974609 0.5
vt 0.978516 0.5
vt 0.982422 0.5
vt 0.986328 0.5
vt 0.990234 0.5

# verts
v -0.6 0 0.4
v -0.6 0 -0.3
v -0.6 0.3 0.4
v -0.6 0.3 -0.3
v -0.5 0 0.6
v -0.5 0 0.4
v -0.5 0 -0.3
v -0.5 0 -0.5
v -0.5 0.3 0.6
v -0.5 0.3 0.4
v -0.5 0.3 -0.3
v -0.5 0.3 -0.5
v -0.4 0 0.7
v -0.4 0 0.6
v -0.4 0 -0.5
v -0.4 0 -0.6
v -0.4 0.3 0.7
v -0.4 0.3 0.6
v -0.4 0.3 -0.5
v -0.4 0.3 -0.6
v -0.2 0 0.8
v -0.2 0 0.7
v -0.2 0.3 0.8
v -0.2 0.3 0.7
v 0.1 0 -0.2
v 0.1 0 -0.4
v 0.1 0.3 -0.2
v 0.1 0.3 -0.4
v 0.2 0 -0.4
v 0.2 0 -0.6
v 0.2 0.3 -0.4
v 0.2 0.3 -0.6
v -0.0999999 0 -0.4
v -0.0999999 0 -0.6
v -0.0999999 0.3 -0.4
v -0.0999999 0.3 -0.6
v 5.96046e-08 0 -0.2
v 5.96046e-08 0 -0.4
v 5.96046e-08 0.3 -0.2
v 5.96046e-08 0.3 -0.4
v 0.3 0 0.8
v 0.3 0 0.7
v 0.3 0.3 0.8
v 0.3 0.3 0.7
v 0.5 0 0.7
v 0.5 0 0.6
v 0.5 0 -0.5
v 0.5 0 -0.6
v 0.5 0.3 0.7
v 0.5 0.3 0.6
v 0.5 0.3 -0.5
v 0.5 0.3 -0.6
v 0.6 0 0.6
v 0.6 0 0.4
v 0.6 0 -0.3
v 0.6 0 -0.5
v 0.6 0.3 0.6
v 0.6 0.3 0.4
v 0.6 0.3 -0.3
v 0.6 0.3 -0.5
v 0.7 0 0.4
v 0.7 0 -0.3
v 0.7 0.3 0.4
v 0.7 0.3 -0.3
v -0.2 0 0.8
v -0.2 0.3 0.8
v 0.3 0 0.8
v 0.3 0.3 0.8
v -0.4 0 0.7
v -0.4 0.3 0.7
v -0.2 0 0.7
v -0.2 0.3 0.7
v 0.3 0 0.7
v 0.3 0.3 0.7
v 0.5 0 0.7
v 0.5 0.3 0.7
v -0.5 0 0.6
v -0.5 0.3 0.6
v -0.4 0 0.6
v -0.4 0.3 0.6
v 0.5 0 0.6
v 0.5 0.3 0.6
v 0.6 0 0.6
v 0.6 0.3 0.6
v -0.6 0 0.4
v -0.6 0.3 0.4
v -0.5 0 0.4
v -0.5 0.3 0.4
v 0.6 0 0.4
v 0.6 0.3 0.4
v 0.7 0 0.4
v 0.7 0.3 0.4
v 5.96046e-08 0 -0.2
v 5.96046e-08 0.3 -0.2
v 0.1 0 -0.2
v 0.1 0.3 -0.2
v -0.6 0 -0.3
v -0.6 0.3 -0.3
v -0.5 0 -0.3
v -0.5 0.3 -0.3
v 0.6 0 -0.3
v 0.6 0.3 -0.3
v 0.7 0 -0.3
v 0.7 0.3 -0.3
v -0.0999999 0 -0.4
v -0.0999999 0.3 -0.4
v 5.96046e-08 0 -0.4
v 5.96046e-08 0.3 -0.4
v 0.1 0 -0.4
v 0.1 0.3 -0.4
v 0.2 0 -0.4
v 0.2 0.3 -0.4
v -0.5 0 -0.5
v -0.5 0.3 -0.5
v -0.4 0 -0.5
v -0.4 0.3 -0.5
v 0.5 0 -0.5
v 0.5 0.3 -0.5
v 0.6 0 -0.5
v 0.6 0.3 -0.5
v -0.4 0 -0.6
v -0.4 0.3 -0.6
v -0.0999999 0 -0.6
v -0.0999999 0.3 -0.6
v 0.2 0 -0.6
v 0.2 0.3 -0.6
v 0.5 0 -0.6
v 0.5 0.3 -0.6
v -0.2 0 0.8
v 0.3 0 0.8
v -0.4 0 0.7
v -0.2 0 0.7
v 0.3 0 0.7
v 0.5 0 0.7
v -0.5 0 0.6
v -0.4 0 0.6
v -0.2 0 0.6
v 0.3 0 0.6
v 0.5 0 0.6
v 0.6 0 0.6
v -0.6 0 0.4
v -0.5 0 0.4
v -0.4 0 0.4
v 0.5 0 0.4
v 0.6 0 0.4
v 0.7 0 0.4
v 5.96046e-08 0 -0.1
v 0.1 0 -0.1
v -0.0999999 0 -0.2
v 5.96046e-08 0 -0.2
v 0.1 0 -0.2
v 0.2 0 -0.2
v -0.6 0 -0.3
v -0.5 0 -0.3
v -0.4 0 -0.3
v 0.5 0 -0.3
v 0.6 0 -0.3
v 0.7 0 -0.3
v -0.2 0 -0.4
v -0.0999999 0 -0.4
v 5.96046e-08 0 -0.4
v 0.1 0 -0.4
v 0.2 0 -0.4
v 0.3 0 -0.4
v -0.5 0 -0.5
v -0.4 0 -0.5
v -0.2 0 -0.5
v 0.3 0 -0.5
v 0.5 0 -0.5
v 0.6 0 -0.5
v -0.4 0 -0.6
v -0.0999999 0 -0.6
v 0.2 0 -0.6
v 0.5 0 -0.6
v -0.2 0.3 0.8
v 0.3 0.3 0.8
v -0.4 0.3 0.7
v -0.2 0.3 0.7
v 5.96046e-08 0.3 0.7
v 0.1 0.3 0.7
v 0.3 0.3 0.7
v 0.5 0.3 0.7
v -0.5 0.3 0.6
v -0.4 0.3 0.6
v -0.2 0.3 0.6
v 5.96046e-08 0.3 0.6
v 0.1 0.3 0.6
v 0.3 0.3 0.6
v 0.4 0.3 0.6
v 0.5 0.3 0.6
v 0.6 0.3 0.6
v -0.0999999 0.3 0.5
v 5.96046e-08 0.3 0.5
v 0.1 0.3 0.5
v 0.2 0.3 0.5
v -0.6 0.3 0.4
v -0.5 0.3 0.4
v -0.4 0.3 0.4
v 0.4 0.3 0.4
v 0.5 0.3 0.4
v 0.6 0.3 0.4
v 0.7 0.3 0.4
v -0.5 0.3 0.3
v -0.4 0.3 0.3
v -0.2 0.3 0.3
v -0.0999999 0.3 0.3
v 5.96046e-08 0.3 0.3
v 0.1 0.3 0.3
v 0.2 0.3 0.3
v 0.3 0.3 0.3
v 0.5 0.3 0.3
v 0.6 0.3 0.3
v -0.4 0.3 0.2
v -0.3 0.3 0.2
v -0.2 0.3 0.2
v -0.0999999 0.3 0.2
v 5.96046e-08 0.3 0.2
v 0.4 0.3 0.2
v 0.5 0.3 0.2
v -0.2 0.3 0.1
v -0.0999999 0.3 0.1
v -0.4 0.3 -5.96046e-08
v -0.3 0.3 -5.96046e-08
v -0.0999999 0.3 -5.96046e-08
v 5.96046e-08 0.3 -5.96046e-08
v 0.2 0.3 -5.96046e-08
v 0.3 0.3 -5.96046e-08
v 0.4 0.3 -5.96046e-08
v 0.5 0.3 -5.96046e-08
v -0.3 0.3 -0.1
v -0.2 0.3 -0.1
v -0.0999999 0.3 -0.1
v 5.96046e-08 0.3 -0.1
v 0.1 0.3 -0.1
v -0.5 0.3 -0.2
v -0.4 0.3 -0.2
v -0.3 0.3 -0.2
v -0.2 0.3 -0.2
v -0.0999999 0.3 -0.2
v 5.96046e-08 0.3 -0.2
v 0.1 0.3 -0.2
v 0.2 0.3 -0.2
v 0.3 0.3 -0.2
v 0.4 0.3 -0.2
v 0.5 0.3 -0.2
v 0.6 0.3 -0.2
v -0.6 0.3 -0.3
v -0.5 0.3 -0.3
v -0.4 0.3 -0.3
v -0.3 0.3 -0.3
v -0.2 0.3 -0.3
v 0.5 0.3 -0.3
v 0.6 0.3 -0.3
v 0.7 0.3 -0.3
v -0.4 0.3 -0.4
v -0.3 0.3 -0.4
v -0.2 0.3 -0.4
v -0.0999999 0.3 -0.4
v 5.96046e-08 0.3 -0.4
v 0.1 0.3 -0.4
v 0.2 0.3 -0.4
v 0.3 0.3 -0.4
v 0.4 0.3 -0.4
v 0.5 0.3 -0.4
v -0.5 0.3 -0.5
v -0.4 0.3 -0.5
v -0.3 0.3 -0.5
v -0.2 0.3 -0.5
v 0.3 0.3 -0.5
v 0.4 0.3 -0.5
v 0.5 0.3 -0.5
v 0.6 0.3 -0.5
v -0.4 0.3 -0.6
v -0.0999999 0.3 -0.6
v 0.2 0.3 -0.6
v 0.5 0.3 -0.6

# faces
f 3/2/1 2/2/1 1/2/1
f 4/2/1 2/2/1 3/2/1
f 9/2/1 6/2/1 5/2/1
f 10/2/1 6/2/1 9/2/1
f 11/2/1 8/2/1 7/2/1
f 12/2/1 8/2/1 11/2/1
f 17/2/1 14/2/1 13/2/1
f 18/2/1 14/2/1 17/2/1
f 19/2/1 16/2/1 15/2/1
f 20/2/1 16/2/1 19/2/1
f 23/2/1 22/2/1 21/2/1
f 24/2/1 22/2/1 23/2/1
f 27/2/1 26/2/1 25/2/1
f 28/2/1 26/2/1 27/2/1
f 31/2/1 30/2/1 29/2/1
f 32/2/1 30/2/1 31/2/1
f 33/2/2 34/2/2 35/2/2
f 35/2/2 34/2/2 36/2/2
f 37/2/2 38/2/2 39/2/2
f 39/2/2 38/2/2 40/2/2
f 41/2/2 42/2/2 43/2/2
f 43/2/2 42/2/2 44/2/2
f 45/2/2 46/2/2 49/2/2
f 49/2/2 46/2/2 50/2/2
f 47/2/2 48/2/2 51/2/2
f 51/2/2 48/2/2 52/2/2
f 53/2/2 54/2/2 57/2/2
f 57/2/2 54/2/2 58/2/2
f 55/2/2 56/2/2 59/2/2
f 59/2/2 56/2/2 60/2/2
f 61/2/2 62/2/2 63/2/2
f 63/2/2 62/2/2 64/2/2
f 67/2/3 66/2/3 65/2/3
f 68/2/3 66/2/3 67/2/3
f 71/2/3 70/2/3 69/2/3
f 72/2/3 70/2/3 71/2/3
f 75/2/3 74/2/3 73/2/3
f 76/2/3 74/2/3 75/2/3
f 79/2/3 78/2/3 77/2/3
f 80/2/3 78/2/3 79/2/3
f 83/2/3 82/2/3 81/2/3
f 84/2/3 82/2/3 83/2/3
f 87/2/3 86/2/3 85/2/3
f 88/2/3 86/2/3 87/2/3
f 91/2/3 90/2/3 89/2/3
f 92/2/3 90/2/3 91/2/3
f 93/2/4 94/2/4 95/2/4
f 95/2/4 94/2/4 96/2/4
f 97/2/4 98/2/4 99/2/4
f 99/2/4 98/2/4 100/2/4
f 101/2/4 102/2/4 103/2/4
f 103/2/4 102/2/4 104/2/4
f 105/2/4 106/2/4 107/2/4
f 107/2/4 106/2/4 108/2/4
f 109/2/4 110/2/4 111/2/4
f 111/2/4 110/2/4 112/2/4
f 113/2/4 114/2/4 115/2/4
f 115/2/4 114/2/4 116/2/4
f 117/2/4 118/2/4 119/2/4
f 119/2/4 118/2/4 120/2/4
f 121/2/4 122/2/4 123/2/4
f 123/2/4 122/2/4 124/2/4
f 125/2/4 126/2/4 127/2/4
f 127/2/4 126/2/4 128/2/4
f 132/2/5 130/2/5 129/2/5
f 133/2/5 130/2/5 132/2/5
f 136/2/5 132/2/5 131/2/5
f 137/3/5 133/3/5 132/3/5
f 137/2/5 132/2/5 136/2/5
f 138/2/5 134/2/5 133/2/5
f 138/3/5 133/3/5 137/3/5
f 139/2/5 134/2/5 138/2/5
f 142/2/5 136/2/5 135/2/5
f 143/3/5 137/3/5 136/3/5
f 143/3/5 138/3/5 137/3/5
f 143/2/5 136/2/5 142/2/5
f 143/3/5 139/3/5 138/3/5
f 144/2/5 140/2/5 139/2/5
f 144/3/5 139/3/5 143/3/5
f 145/2/5 140/2/5 144/2/5
f 147/3/5 143/3/5 142/3/5
f 147/3/5 144/3/5 143/3/5
f 147/3/5 145/3/5 144/3/5
f 148/3/5 145/3/5 147/3/5
f 149/3/5 147/3/5 142/3/5
f 150/2/5 148/2/5 147/2/5
f 150/3/5 147/3/5 149/3/5
f 151/3/5 145/3/5 148/3/5
f 151/2/5 148/2/5 150/2/5
f 152/3/5 145/3/5 151/3/5
f 153/2/5 142/2/5 141/2/5
f 154/3/5 149/3/5 142/3/5
f 154/2/5 142/2/5 153/2/5
f 155/3/5 149/3/5 154/3/5
f 156/3/5 145/3/5 152/3/5
f 157/2/5 146/2/5 145/2/5
f 157/3/5 145/3/5 156/3/5
f 158/2/5 146/2/5 157/2/5
f 159/3/5 149/3/5 155/3/5
f 160/2/5 150/2/5 149/2/5
f 160/3/5 149/3/5 159/3/5
f 161/2/5 150/2/5 160/2/5
f 162/2/5 152/2/5 151/2/5
f 163/3/5 156/3/5 152/3/5
f 163/2/5 152/2/5 162/2/5
f 164/3/5 156/3/5 163/3/5
f 165/2/5 155/2/5 154/2/5
f 166/3/5 159/3/5 155/3/5
f 166/2/5 155/2/5 165/2/5
f 167/2/5 160/2/5 159/2/5
f 167/3/5 159/3/5 166/3/5
f 168/3/5 156/3/5 164/3/5
f 168/2/5 164/2/5 163/2/5
f 169/2/5 157/2/5 156/2/5
f 169/3/5 156/3/5 168/3/5
f 170/2/5 157/2/5 169/2/5
f 171/2/5 167/2/5 166/2/5
f 172/2/5 160/2/5 167/2/5
f 172/2/5 167/2/5 171/2/5
f 173/2/5 168/2/5 163/2/5
f 173/2/5 169/2/5 168/2/5
f 174/2/5 169/2/5 173/2/5
f 175/2/6 176/2/6 178/2/6
f 178/2/6 176/2/6 179/2/6
f 179/2/6 176/2/6 180/2/6
f 180/2/6 176/2/6 181/2/6
f 177/2/6 178/2/6 184/2/6
f 178/6/6 179/6/6 185/6/6
f 184/2/6 178/2/6 185/2/6
f 179/4/6 180/4/6 186/4/6
f 185/6/6 179/6/6 186/6/6
f 180/6/6 181/6/6 187/6/6
f 186/4/6 180/4/6 187/4/6
f 181/2/6 182/2/6 188/2/6
f 187/6/6 181/6/6 188/6/6
f 188/2/6 182/2/6 189/2/6
f 189/2/6 182/2/6 190/2/6
f 184/6/6 185/6/6 192/6/6
f 185/6/6 186/6/6 192/6/6
f 186/5/6 187/5/6 193/5/6
f 192/6/6 186/6/6 193/6/6
f 187/6/6 188/6/6 194/6/6
f 193/5/6 187/5/6 194/5/6
f 188/6/6 189/6/6 194/6/6
f 194/6/6 189/6/6 195/6/6
f 183/2/6 184/2/6 197/2/6
f 184/6/6 192/6/6 198/6/6
f 197/2/6 184/2/6 198/2/6
f 195/6/6 189/6/6 199/6/6
f 189/3/6 190/3/6 199/3/6
f 190/2/6 191/2/6 200/2/6
f 199/3/6 190/3/6 200/3/6
f 200/2/6 191/2/6 201/2/6
f 196/2/6 197/2/6 203/2/6
f 197/5/6 198/5/6 203/5/6
f 198/6/6 192/6/6 204/6/6
f 203/5/6 198/5/6 204/5/6
f 204/6/6 192/6/6 205/6/6
f 192/3/6 193/3/6 206/3/6
f 205/6/6 192/6/6 206/6/6
f 193/6/6 194/6/6 207/6/6
f 206/3/6 193/3/6 207/3/6
f 194/3/6 195/3/6 208/3/6
f 207/6/6 194/6/6 208/6/6
f 195/6/6 199/6/6 209/6/6
f 208/3/6 195/3/6 209/3/6
f 199/6/6 200/6/6 209/6/6
f 209/6/6 200/6/6 210/6/6
f 200/3/6 201/3/6 211/3/6
f 210/6/6 200/6/6 211/6/6
f 201/2/6 202/2/6 212/2/6
f 211/3/6 201/3/6 212/3/6
f 204/6/6 205/6/6 213/6/6
f 203/3/6 204/3/6 213/3/6
f 213/6/6 205/6/6 214/6/6
f 205/3/6 206/3/6 215/3/6
f 214/6/6 205/6/6 215/6/6
f 207/6/6 208/6/6 216/6/6
f 215/3/6 206/3/6 216/3/6
f 206/6/6 207/6/6 216/6/6
f 208/6/6 209/6/6 216/6/6
f 216/6/6 209/6/6 217/6/6
f 210/6/6 211/6/6 218/6/6
f 211/6/6 212/6/6 218/6/6
f 218/6/6 212/6/6 219/6/6
f 214/6/6 215/6/6 220/6/6
f 215/6/6 216/6/6 220/6/6
f 216/3/6 217/3/6 221/3/6
f 220/6/6 216/6/6 221/6/6
f 213/3/6 214/3/6 222/3/6
f 203/3/6 213/3/6 222/3/6
f 214/6/6 220/6/6 223/6/6
f 222/3/6 214/3/6 223/3/6
f 221/3/6 217/3/6 224/3/6
f 220/3/6 221/3/6 224/3/6
f 217/6/6 209/6/6 225/6/6
f 224/3/6 217/3/6 225/3/6
f 209/3/6 210/3/6 226/3/6
f 225/6/6 209/6/6 226/6/6
f 210/6/6 218/6/6 227/6/6
f 226/3/6 210/3/6 227/3/6
f 218/3/6 219/3/6 228/3/6
f 227/6/6 218/6/6 228/6/6
f 219/6/6 212/6/6 229/6/6
f 228/3/6 219/3/6 229/3/6
f 223/6/6 220/6/6 230/6/6
f 222/6/6 223/6/6 230/6/6
f 220/3/6 224/3/6 231/3/6
f 230/6/6 220/6/6 231/6/6
f 224/6/6 225/6/6 232/6/6
f 231/3/6 224/3/6 232/3/6
f 226/6/6 227/6/6 232/6/6
f 225/6/6 226/6/6 232/6/6
f 232/6/6 227/6/6 233/6/6
f 233/6/6 227/6/6 234/6/6
f 196/2/6 203/2/6 235/2/6
f 203/3/6 222/3/6 235/3/6
f 222/6/6 230/6/6 236/6/6
f 235/3/6 222/3/6 236/3/6
f 230/3/6 231/3/6 237/3/6
f 236/6/6 230/6/6 237/6/6
f 231/6/6 232/6/6 238/6/6
f 237/3/6 231/3/6 238/3/6
f 232/6/6 233/6/6 238/6/6
f 238/6/6 233/6/6 239/6/6
f 233/2/6 234/2/6 240/2/6
f 239/6/6 233/6/6 240/6/6
f 234/6/6 227/6/6 241/6/6
f 240/2/6 234/2/6 241/2/6
f 241/6/6 227/6/6 242/6/6
f 227/3/6 228/3/6 243/3/6
f 242/6/6 227/6/6 243/6/6
f 228/6/6 229/6/6 244/6/6
f 243/3/6 228/3/6 244/3/6
f 229/6/6 212/6/6 245/6/6
f 244/6/6 229/6/6 245/6/6
f 212/2/6 202/2/6 246/2/6
f 245/6/6 212/6/6 246/6/6
f 196/2/6 235/2/6 247/2/6
f 235/5/6 236/5/6 248/5/6
f 247/2/6 235/2/6 248/2/6
f 236/3/6 237/3/6 249/3/6
f 248/5/6 236/5/6 249/5/6
f 238/6/6 239/6/6 250/6/6
f 249/3/6 237/3/6 250/3/6
f 237/6/6 238/6/6 250/6/6
f 250/6/6 239/6/6 251/6/6
f 244/6/6 245/6/6 252/6/6
f 243/6/6 244/6/6 252/6/6
f 242/6/6 243/6/6 252/6/6
f 245/5/6 246/5/6 252/5/6
f 246/2/6 202/2/6 253/2/6
f 252/5/6 246/5/6 253/5/6
f 253/2/6 202/2/6 254/2/6
f 249/6/6 250/6/6 255/6/6
f 248/2/6 249/2/6 255/2/6
f 250/3/6 251/3/6 256/3/6
f 255/6/6 250/6/6 256/6/6
f 251/6/6 239/6/6 257/6/6
f 256/3/6 251/3/6 257/3/6
f 239/2/6 240/2/6 258/2/6
f 257/6/6 239/6/6 258/6/6
f 258/2/6 240/2/6 259/2/6
f 241/2/6 242/2/6 260/2/6
f 242/6/6 252/6/6 261/6/6
f 260/2/6 242/2/6 261/2/6
f 261/6/6 252/6/6 262/6/6
f 262/6/6 252/6/6 263/6/6
f 252/2/6 253/2/6 264/2/6
f 263/6/6 252/6/6 264/6/6
f 248/2/6 255/2/6 265/2/6
f 255/5/6 256/5/6 266/5/6
f 265/2/6 255/2/6 266/2/6
f 256/6/6 257/6/6 267/6/6
f 266/5/6 256/5/6 267/5/6
f 257/2/6 258/2/6 268/2/6
f 267/6/6 257/6/6 268/6/6
f 262/6/6 263/6/6 269/6/6
f 261/2/6 262/2/6 269/2/6
f 263/5/6 264/5/6 270/5/6
f 269/6/6 263/6/6 270/6/6
f 264/2/6 253/2/6 271/2/6
f 270/5/6 264/5/6 271/5/6
f 271/2/6 253/2/6 272/2/6
f 266/2/6 267/2/6 273/2/6
f 267/2/6 268/2/6 273/2/6
f 268/2/6 258/2/6 274/2/6
f 273/2/6 268/2/6 274/2/6
f 269/2/6 270/2/6 275/2/6
f 261/2/6 269/2/6 275/2/6
f 270/2/6 271/2/6 275/2/6
f 275/2/6 271/2/6 276/2/6
