# MagicaVoxel @ Ephtracy

# group
o 

# material
mtllib MarioStarOff.mtl
usemtl palette

# normals
vn -1 0 0
vn 1 0 0
vn 0 0 1
vn 0 0 -1
vn 0 -1 0
vn 0 1 0

# texcoords
vt 0.974609 0.5
vt 0.978516 0.5
vt 0.982422 0.5
vt 0.986328 0.5
vt 0.990234 0.5
vt 0.994141 0.5

# verts
v -0.8 0.9 0.0999999
v -0.8 0.9 -0.1
v -0.8 1.1 0.0999999
v -0.8 1.1 -0.1
v -0.7 0 0.0999999
v -0.7 0 -0.1
v -0.7 0.3 0.0999999
v -0.7 0.3 -0.1
v -0.7 0.8 0.0999999
v -0.7 0.8 -0.1
v -0.7 0.9 0.0999999
v -0.7 0.9 -0.1
v -0.6 0.3 0.0999999
v -0.6 0.3 -0.1
v -0.6 0.5 0.0999999
v -0.6 0.5 -0.1
v -0.6 0.7 0.0999999
v -0.6 0.7 -0.1
v -0.6 0.8 0.0999999
v -0.6 0.8 -0.1
v -0.5 0.5 0.0999999
v -0.5 0.5 -0.1
v -0.5 0.7 0.0999999
v -0.5 0.7 -0.1
v -0.5 1.1 0.0999999
v -0.5 1.1 -0.1
v -0.5 1.2 0.0999999
v -0.5 1.2 -0.1
v -0.3 1.2 0.0999999
v -0.3 1.2 -0.1
v -0.3 1.3 0.0999999
v -0.3 1.3 -0.1
v -0.2 1.3 0.0999999
v -0.2 1.3 -0.1
v -0.2 1.5 0.0999999
v -0.2 1.5 -0.1
v -0.1 1.5 0.0999999
v -0.1 1.5 -0.1
v -0.1 1.6 0.0999999
v -0.1 1.6 -0.1
v 0.1 0.1 0.0999999
v 0.1 0.1 -0.1
v 0.1 0.2 0.0999999
v 0.1 0.2 -0.1
v 0.3 0 0.0999999
v 0.3 0 -0.1
v 0.3 0.1 0.0999999
v 0.3 0.1 -0.1
v -0.3 0 0.0999999
v -0.3 0 -0.1
v -0.3 0.1 0.0999999
v -0.3 0.1 -0.1
v -0.1 0.1 0.0999999
v -0.1 0.1 -0.1
v -0.1 0.2 0.0999999
v -0.1 0.2 -0.1
v 0.1 1.5 0.0999999
v 0.1 1.5 -0.1
v 0.1 1.6 0.0999999
v 0.1 1.6 -0.1
v 0.2 1.3 0.0999999
v 0.2 1.3 -0.1
v 0.2 1.5 0.0999999
v 0.2 1.5 -0.1
v 0.3 1.2 0.0999999
v 0.3 1.2 -0.1
v 0.3 1.3 0.0999999
v 0.3 1.3 -0.1
v 0.5 0.5 0.0999999
v 0.5 0.5 -0.1
v 0.5 0.7 0.0999999
v 0.5 0.7 -0.1
v 0.5 1.1 0.0999999
v 0.5 1.1 -0.1
v 0.5 1.2 0.0999999
v 0.5 1.2 -0.1
v 0.6 0.3 0.0999999
v 0.6 0.3 -0.1
v 0.6 0.5 0.0999999
v 0.6 0.5 -0.1
v 0.6 0.7 0.0999999
v 0.6 0.7 -0.1
v 0.6 0.8 0.0999999
v 0.6 0.8 -0.1
v 0.7 0 0.0999999
v 0.7 0 -0.1
v 0.7 0.3 0.0999999
v 0.7 0.3 -0.1
v 0.7 0.8 0.0999999
v 0.7 0.8 -0.1
v 0.7 0.9 0.0999999
v 0.7 0.9 -0.1
v 0.8 0.9 0.0999999
v 0.8 0.9 -0.1
v 0.8 1.1 0.0999999
v 0.8 1.1 -0.1
v -0.8 0.9 0.0999999
v -0.8 1.1 0.0999999
v -0.7 0 0.0999999
v -0.7 0.3 0.0999999
v -0.7 0.8 0.0999999
v -0.7 0.9 0.0999999
v -0.7 1 0.0999999
v -0.6 0.1 0.0999999
v -0.6 0.2 0.0999999
v -0.6 0.3 0.0999999
v -0.6 0.5 0.0999999
v -0.6 0.7 0.0999999
v -0.6 0.8 0.0999999
v -0.6 0.9 0.0999999
v -0.6 1 0.0999999
v -0.5 0.2 0.0999999
v -0.5 0.3 0.0999999
v -0.5 0.4 0.0999999
v -0.5 0.5 0.0999999
v -0.5 0.7 0.0999999
v -0.5 0.8 0.0999999
v -0.5 0.9 0.0999999
v -0.5 1 0.0999999
v -0.5 1.1 0.0999999
v -0.5 1.2 0.0999999
v -0.4 0.3 0.0999999
v -0.4 0.4 0.0999999
v -0.4 0.5 0.0999999
v -0.4 0.7 0.0999999
v -0.4 0.8 0.0999999
v -0.4 0.9 0.0999999
v -0.4 1 0.0999999
v -0.4 1.1 0.0999999
v -0.3 0 0.0999999
v -0.3 0.1 0.0999999
v -0.3 0.2 0.0999999
v -0.3 0.3 0.0999999
v -0.3 0.4 0.0999999
v -0.3 0.8 0.0999999
v -0.3 1.1 0.0999999
v -0.3 1.2 0.0999999
v -0.3 1.3 0.0999999
v -0.2 0.2 0.0999999
v -0.2 0.3 0.0999999
v -0.2 0.4 0.0999999
v -0.2 0.7 0.0999999
v -0.2 0.8 0.0999999
v -0.2 1 0.0999999
v -0.2 1.1 0.0999999
v -0.2 1.2 0.0999999
v -0.2 1.3 0.0999999
v -0.2 1.5 0.0999999
v -0.1 0.1 0.0999999
v -0.1 0.2 0.0999999
v -0.1 0.3 0.0999999
v -0.1 0.7 0.0999999
v -0.1 0.8 0.0999999
v -0.1 1 0.0999999
v -0.1 1.1 0.0999999
v -0.1 1.2 0.0999999
v -0.1 1.3 0.0999999
v -0.1 1.5 0.0999999
v -0.1 1.6 0.0999999
v 5.96046e-08 1.2 0.0999999
v 5.96046e-08 1.4 0.0999999
v 5.96046e-08 1.5 0.0999999
v 0.1 0.1 0.0999999
v 0.1 0.2 0.0999999
v 0.1 0.3 0.0999999
v 0.1 0.7 0.0999999
v 0.1 0.8 0.0999999
v 0.1 1 0.0999999
v 0.1 1.3 0.0999999
v 0.1 1.4 0.0999999
v 0.1 1.5 0.0999999
v 0.1 1.6 0.0999999
v 0.2 0.2 0.0999999
v 0.2 0.3 0.0999999
v 0.2 0.4 0.0999999
v 0.2 0.7 0.0999999
v 0.2 0.8 0.0999999
v 0.2 1 0.0999999
v 0.2 1.1 0.0999999
v 0.2 1.2 0.0999999
v 0.2 1.3 0.0999999
v 0.2 1.5 0.0999999
v 0.3 0 0.0999999
v 0.3 0.1 0.0999999
v 0.3 0.2 0.0999999
v 0.3 0.3 0.0999999
v 0.3 0.4 0.0999999
v 0.3 0.8 0.0999999
v 0.3 1 0.0999999
v 0.3 1.1 0.0999999
v 0.3 1.2 0.0999999
v 0.3 1.3 0.0999999
v 0.4 0.3 0.0999999
v 0.4 0.4 0.0999999
v 0.4 0.5 0.0999999
v 0.4 0.7 0.0999999
v 0.4 0.8 0.0999999
v 0.4 0.9 0.0999999
v 0.4 1 0.0999999
v 0.4 1.1 0.0999999
v 0.5 0.2 0.0999999
v 0.5 0.3 0.0999999
v 0.5 0.4 0.0999999
v 0.5 0.5 0.0999999
v 0.5 0.7 0.0999999
v 0.5 0.8 0.0999999
v 0.5 0.9 0.0999999
v 0.5 1 0.0999999
v 0.5 1.1 0.0999999
v 0.5 1.2 0.0999999
v 0.6 0.1 0.0999999
v 0.6 0.2 0.0999999
v 0.6 0.3 0.0999999
v 0.6 0.5 0.0999999
v 0.6 0.7 0.0999999
v 0.6 0.8 0.0999999
v 0.6 0.9 0.0999999
v 0.6 1 0.0999999
v 0.7 0 0.0999999
v 0.7 0.3 0.0999999
v 0.7 0.8 0.0999999
v 0.7 0.9 0.0999999
v 0.7 1 0.0999999
v 0.8 0.9 0.0999999
v 0.8 1.1 0.0999999
v -0.8 0.9 -0.1
v -0.8 1.1 -0.1
v -0.7 0 -0.1
v -0.7 0.3 -0.1
v -0.7 0.8 -0.1
v -0.7 0.9 -0.1
v -0.7 1 -0.1
v -0.6 0.1 -0.1
v -0.6 0.2 -0.1
v -0.6 0.3 -0.1
v -0.6 0.5 -0.1
v -0.6 0.7 -0.1
v -0.6 0.8 -0.1
v -0.6 0.9 -0.1
v -0.6 1 -0.1
v -0.5 0.2 -0.1
v -0.5 0.3 -0.1
v -0.5 0.4 -0.1
v -0.5 0.5 -0.1
v -0.5 0.7 -0.1
v -0.5 0.8 -0.1
v -0.5 0.9 -0.1
v -0.5 1 -0.1
v -0.5 1.1 -0.1
v -0.5 1.2 -0.1
v -0.4 0.3 -0.1
v -0.4 0.4 -0.1
v -0.4 0.5 -0.1
v -0.4 0.7 -0.1
v -0.4 0.8 -0.1
v -0.4 0.9 -0.1
v -0.4 1 -0.1
v -0.4 1.1 -0.1
v -0.3 0 -0.1
v -0.3 0.1 -0.1
v -0.3 0.2 -0.1
v -0.3 0.3 -0.1
v -0.3 0.4 -0.1
v -0.3 0.8 -0.1
v -0.3 1.1 -0.1
v -0.3 1.2 -0.1
v -0.3 1.3 -0.1
v -0.2 0.2 -0.1
v -0.2 0.3 -0.1
v -0.2 0.4 -0.1
v -0.2 0.7 -0.1
v -0.2 0.8 -0.1
v -0.2 1 -0.1
v -0.2 1.1 -0.1
v -0.2 1.2 -0.1
v -0.2 1.3 -0.1
v -0.2 1.5 -0.1
v -0.1 0.1 -0.1
v -0.1 0.2 -0.1
v -0.1 0.3 -0.1
v -0.1 0.7 -0.1
v -0.1 0.8 -0.1
v -0.1 1 -0.1
v -0.1 1.1 -0.1
v -0.1 1.2 -0.1
v -0.1 1.3 -0.1
v -0.1 1.5 -0.1
v -0.1 1.6 -0.1
v 5.96046e-08 1.2 -0.1
v 5.96046e-08 1.4 -0.1
v 5.96046e-08 1.5 -0.1
v 0.1 0.1 -0.1
v 0.1 0.2 -0.1
v 0.1 0.3 -0.1
v 0.1 0.7 -0.1
v 0.1 0.8 -0.1
v 0.1 1 -0.1
v 0.1 1.3 -0.1
v 0.1 1.4 -0.1
v 0.1 1.5 -0.1
v 0.1 1.6 -0.1
v 0.2 0.2 -0.1
v 0.2 0.3 -0.1
v 0.2 0.4 -0.1
v 0.2 0.7 -0.1
v 0.2 0.8 -0.1
v 0.2 1 -0.1
v 0.2 1.1 -0.1
v 0.2 1.2 -0.1
v 0.2 1.3 -0.1
v 0.2 1.5 -0.1
v 0.3 0 -0.1
v 0.3 0.1 -0.1
v 0.3 0.2 -0.1
v 0.3 0.3 -0.1
v 0.3 0.4 -0.1
v 0.3 0.8 -0.1
v 0.3 1 -0.1
v 0.3 1.1 -0.1
v 0.3 1.2 -0.1
v 0.3 1.3 -0.1
v 0.4 0.3 -0.1
v 0.4 0.4 -0.1
v 0.4 0.5 -0.1
v 0.4 0.7 -0.1
v 0.4 0.8 -0.1
v 0.4 0.9 -0.1
v 0.4 1 -0.1
v 0.4 1.1 -0.1
v 0.5 0.2 -0.1
v 0.5 0.3 -0.1
v 0.5 0.4 -0.1
v 0.5 0.5 -0.1
v 0.5 0.7 -0.1
v 0.5 0.8 -0.1
v 0.5 0.9 -0.1
v 0.5 1 -0.1
v 0.5 1.1 -0.1
v 0.5 1.2 -0.1
v 0.6 0.1 -0.1
v 0.6 0.2 -0.1
v 0.6 0.3 -0.1
v 0.6 0.5 -0.1
v 0.6 0.7 -0.1
v 0.6 0.8 -0.1
v 0.6 0.9 -0.1
v 0.6 1 -0.1
v 0.7 0 -0.1
v 0.7 0.3 -0.1
v 0.7 0.8 -0.1
v 0.7 0.9 -0.1
v 0.7 1 -0.1
v 0.8 0.9 -0.1
v 0.8 1.1 -0.1
v -0.7 0 0.0999999
v -0.3 0 0.0999999
v 0.3 0 0.0999999
v 0.7 0 0.0999999
v -0.7 0 -0.1
v -0.3 0 -0.1
v 0.3 0 -0.1
v 0.7 0 -0.1
v -0.3 0.1 0.0999999
v -0.1 0.1 0.0999999
v 0.1 0.1 0.0999999
v 0.3 0.1 0.0999999
v -0.3 0.1 -0.1
v -0.1 0.1 -0.1
v 0.1 0.1 -0.1
v 0.3 0.1 -0.1
v -0.1 0.2 0.0999999
v 0.1 0.2 0.0999999
v -0.1 0.2 -0.1
v 0.1 0.2 -0.1
v -0.6 0.7 0.0999999
v -0.5 0.7 0.0999999
v 0.5 0.7 0.0999999
v 0.6 0.7 0.0999999
v -0.6 0.7 -0.1
v -0.5 0.7 -0.1
v 0.5 0.7 -0.1
v 0.6 0.7 -0.1
v -0.7 0.8 0.0999999
v -0.6 0.8 0.0999999
v 0.6 0.8 0.0999999
v 0.7 0.8 0.0999999
v -0.7 0.8 -0.1
v -0.6 0.8 -0.1
v 0.6 0.8 -0.1
v 0.7 0.8 -0.1
v -0.8 0.9 0.0999999
v -0.7 0.9 0.0999999
v 0.7 0.9 0.0999999
v 0.8 0.9 0.0999999
v -0.8 0.9 -0.1
v -0.7 0.9 -0.1
v 0.7 0.9 -0.1
v 0.8 0.9 -0.1
v -0.7 0.3 0.0999999
v -0.6 0.3 0.0999999
v 0.6 0.3 0.0999999
v 0.7 0.3 0.0999999
v -0.7 0.3 -0.1
v -0.6 0.3 -0.1
v 0.6 0.3 -0.1
v 0.7 0.3 -0.1
v -0.6 0.5 0.0999999
v -0.5 0.5 0.0999999
v 0.5 0.5 0.0999999
v 0.6 0.5 0.0999999
v -0.6 0.5 -0.1
v -0.5 0.5 -0.1
v 0.5 0.5 -0.1
v 0.6 0.5 -0.1
v -0.8 1.1 0.0999999
v -0.5 1.1 0.0999999
v 0.5 1.1 0.0999999
v 0.8 1.1 0.0999999
v -0.8 1.1 -0.1
v -0.5 1.1 -0.1
v 0.5 1.1 -0.1
v 0.8 1.1 -0.1
v -0.5 1.2 0.0999999
v -0.3 1.2 0.0999999
v 0.3 1.2 0.0999999
v 0.5 1.2 0.0999999
v -0.5 1.2 -0.1
v -0.3 1.2 -0.1
v 0.3 1.2 -0.1
v 0.5 1.2 -0.1
v -0.3 1.3 0.0999999
v -0.2 1.3 0.0999999
v 0.2 1.3 0.0999999
v 0.3 1.3 0.0999999
v -0.3 1.3 -0.1
v -0.2 1.3 -0.1
v 0.2 1.3 -0.1
v 0.3 1.3 -0.1
v -0.2 1.5 0.0999999
v -0.1 1.5 0.0999999
v 0.1 1.5 0.0999999
v 0.2 1.5 0.0999999
v -0.2 1.5 -0.1
v -0.1 1.5 -0.1
v 0.1 1.5 -0.1
v 0.2 1.5 -0.1
v -0.1 1.6 0.0999999
v 0.1 1.6 0.0999999
v -0.1 1.6 -0.1
v 0.1 1.6 -0.1

# faces
f 3/1/1 2/1/1 1/1/1
f 4/1/1 2/1/1 3/1/1
f 7/1/1 6/1/1 5/1/1
f 8/1/1 6/1/1 7/1/1
f 11/1/1 10/1/1 9/1/1
f 12/1/1 10/1/1 11/1/1
f 15/1/1 14/1/1 13/1/1
f 16/1/1 14/1/1 15/1/1
f 19/1/1 18/1/1 17/1/1
f 20/1/1 18/1/1 19/1/1
f 23/1/1 22/1/1 21/1/1
f 24/1/1 22/1/1 23/1/1
f 27/1/1 26/1/1 25/1/1
f 28/1/1 26/1/1 27/1/1
f 31/1/1 30/1/1 29/1/1
f 32/1/1 30/1/1 31/1/1
f 35/1/1 34/1/1 33/1/1
f 36/1/1 34/1/1 35/1/1
f 39/1/1 38/1/1 37/1/1
f 40/1/1 38/1/1 39/1/1
f 43/1/1 42/1/1 41/1/1
f 44/1/1 42/1/1 43/1/1
f 47/1/1 46/1/1 45/1/1
f 48/1/1 46/1/1 47/1/1
f 49/1/2 50/1/2 51/1/2
f 51/1/2 50/1/2 52/1/2
f 53/1/2 54/1/2 55/1/2
f 55/1/2 54/1/2 56/1/2
f 57/1/2 58/1/2 59/1/2
f 59/1/2 58/1/2 60/1/2
f 61/1/2 62/1/2 63/1/2
f 63/1/2 62/1/2 64/1/2
f 65/1/2 66/1/2 67/1/2
f 67/1/2 66/1/2 68/1/2
f 69/1/2 70/1/2 71/1/2
f 71/1/2 70/1/2 72/1/2
f 73/1/2 74/1/2 75/1/2
f 75/1/2 74/1/2 76/1/2
f 77/1/2 78/1/2 79/1/2
f 79/1/2 78/1/2 80/1/2
f 81/1/2 82/1/2 83/1/2
f 83/1/2 82/1/2 84/1/2
f 85/1/2 86/1/2 87/1/2
f 87/1/2 86/1/2 88/1/2
f 89/1/2 90/1/2 91/1/2
f 91/1/2 90/1/2 92/1/2
f 93/1/2 94/1/2 95/1/2
f 95/1/2 94/1/2 96/1/2
f 102/1/3 98/1/3 97/1/3
f 103/1/3 98/1/3 102/1/3
f 104/1/3 100/1/3 99/1/3
f 105/1/3 100/1/3 104/1/3
f 106/1/3 100/1/3 105/1/3
f 109/1/3 102/1/3 101/1/3
f 110/2/3 103/2/3 102/2/3
f 110/1/3 102/1/3 109/1/3
f 111/1/3 98/1/3 103/1/3
f 111/2/3 103/2/3 110/2/3
f 112/2/3 105/2/3 104/2/3
f 112/3/3 106/3/3 105/3/3
f 113/1/3 107/1/3 106/1/3
f 113/3/3 106/3/3 112/3/3
f 114/1/3 107/1/3 113/1/3
f 115/1/3 107/1/3 114/1/3
f 116/1/3 109/1/3 108/1/3
f 117/3/3 110/3/3 109/3/3
f 117/1/3 109/1/3 116/1/3
f 118/4/3 111/4/3 110/4/3
f 118/3/3 110/3/3 117/3/3
f 119/1/3 98/1/3 111/1/3
f 119/4/3 111/4/3 118/4/3
f 120/1/3 98/1/3 119/1/3
f 122/4/3 113/4/3 112/4/3
f 122/2/3 114/2/3 113/2/3
f 123/3/3 115/3/3 114/3/3
f 123/2/3 114/2/3 122/2/3
f 124/1/3 116/1/3 115/1/3
f 124/3/3 115/3/3 123/3/3
f 125/3/3 117/3/3 116/3/3
f 125/1/3 116/1/3 124/1/3
f 126/2/3 118/2/3 117/2/3
f 126/3/3 117/3/3 125/3/3
f 127/4/3 120/4/3 119/4/3
f 127/2/3 118/2/3 126/2/3
f 127/4/3 119/4/3 118/4/3
f 128/4/3 120/4/3 127/4/3
f 129/1/3 121/1/3 120/1/3
f 129/4/3 120/4/3 128/4/3
f 130/1/3 104/1/3 99/1/3
f 131/2/3 112/2/3 104/2/3
f 131/1/3 104/1/3 130/1/3
f 132/4/3 123/4/3 122/4/3
f 132/2/3 112/2/3 131/2/3
f 132/4/3 122/4/3 112/4/3
f 133/4/3 123/4/3 132/4/3
f 134/2/3 125/2/3 124/2/3
f 134/4/3 123/4/3 133/4/3
f 134/2/3 124/2/3 123/2/3
f 134/2/3 126/2/3 125/2/3
f 135/4/3 128/4/3 127/4/3
f 135/2/3 126/2/3 134/2/3
f 135/4/3 127/4/3 126/4/3
f 136/5/3 129/5/3 128/5/3
f 136/1/3 121/1/3 129/1/3
f 137/1/3 121/1/3 136/1/3
f 139/2/3 133/2/3 132/2/3
f 139/1/3 132/1/3 131/1/3
f 140/4/3 135/4/3 134/4/3
f 140/2/3 133/2/3 139/2/3
f 140/4/3 134/4/3 133/4/3
f 141/4/3 135/4/3 140/4/3
f 142/4/3 135/4/3 141/4/3
f 143/4/3 128/4/3 135/4/3
f 143/4/3 135/4/3 142/4/3
f 144/5/3 136/5/3 128/5/3
f 144/4/3 128/4/3 143/4/3
f 145/2/3 137/2/3 136/2/3
f 145/5/3 136/5/3 144/5/3
f 146/1/3 138/1/3 137/1/3
f 146/2/3 137/2/3 145/2/3
f 147/1/3 138/1/3 146/1/3
f 149/1/3 139/1/3 131/1/3
f 150/3/3 140/3/3 139/3/3
f 150/1/3 139/1/3 149/1/3
f 151/2/3 141/2/3 140/2/3
f 151/3/3 140/3/3 150/3/3
f 152/4/3 142/4/3 141/4/3
f 152/6/3 143/6/3 142/6/3
f 153/1/3 144/1/3 143/1/3
f 153/6/3 143/6/3 152/6/3
f 154/4/3 145/4/3 144/4/3
f 154/1/3 144/1/3 153/1/3
f 155/5/3 146/5/3 145/5/3
f 155/4/3 145/4/3 154/4/3
f 156/4/3 147/4/3 146/4/3
f 156/5/3 146/5/3 155/5/3
f 157/1/3 148/1/3 147/1/3
f 157/4/3 147/4/3 156/4/3
f 158/1/3 148/1/3 157/1/3
f 160/4/3 153/4/3 152/4/3
f 160/4/3 156/4/3 155/4/3
f 160/5/3 158/5/3 157/5/3
f 160/5/3 157/5/3 156/5/3
f 160/4/3 155/4/3 154/4/3
f 160/4/3 154/4/3 153/4/3
f 161/5/3 158/5/3 160/5/3
f 162/1/3 159/1/3 158/1/3
f 162/5/3 158/5/3 161/5/3
f 164/1/3 151/1/3 150/1/3
f 165/2/3 141/2/3 151/2/3
f 165/1/3 151/1/3 164/1/3
f 166/4/3 161/4/3 160/4/3
f 166/4/3 152/4/3 141/4/3
f 166/4/3 160/4/3 152/4/3
f 167/4/3 161/4/3 166/4/3
f 168/4/3 161/4/3 167/4/3
f 169/4/3 161/4/3 168/4/3
f 170/2/3 162/2/3 161/2/3
f 170/4/3 161/4/3 169/4/3
f 171/1/3 159/1/3 162/1/3
f 171/2/3 162/2/3 170/2/3
f 172/1/3 159/1/3 171/1/3
f 173/1/3 164/1/3 163/1/3
f 173/3/3 165/3/3 164/3/3
f 174/2/3 141/2/3 165/2/3
f 174/3/3 165/3/3 173/3/3
f 175/4/3 166/4/3 141/4/3
f 175/2/3 141/2/3 174/2/3
f 176/6/3 167/6/3 166/6/3
f 176/4/3 166/4/3 175/4/3
f 177/1/3 168/1/3 167/1/3
f 177/6/3 167/6/3 176/6/3
f 178/4/3 169/4/3 168/4/3
f 178/1/3 168/1/3 177/1/3
f 179/4/3 169/4/3 178/4/3
f 180/4/3 169/4/3 179/4/3
f 181/1/3 171/1/3 170/1/3
f 181/4/3 169/4/3 180/4/3
f 181/1/3 170/1/3 169/1/3
f 182/1/3 171/1/3 181/1/3
f 184/1/3 173/1/3 163/1/3
f 185/2/3 174/2/3 173/2/3
f 185/1/3 173/1/3 184/1/3
f 186/4/3 179/4/3 178/4/3
f 186/2/3 174/2/3 185/2/3
f 186/4/3 177/4/3 176/4/3
f 186/4/3 175/4/3 174/4/3
f 186/4/3 176/4/3 175/4/3
f 186/4/3 178/4/3 177/4/3
f 187/4/3 179/4/3 186/4/3
f 188/4/3 179/4/3 187/4/3
f 189/4/3 179/4/3 188/4/3
f 190/2/3 180/2/3 179/2/3
f 190/4/3 179/4/3 189/4/3
f 191/1/3 181/1/3 180/1/3
f 191/2/3 180/2/3 190/2/3
f 192/1/3 181/1/3 191/1/3
f 193/4/3 186/4/3 185/4/3
f 193/4/3 187/4/3 186/4/3
f 194/2/3 188/2/3 187/2/3
f 194/4/3 187/4/3 193/4/3
f 195/2/3 188/2/3 194/2/3
f 196/2/3 188/2/3 195/2/3
f 197/4/3 189/4/3 188/4/3
f 197/2/3 188/2/3 196/2/3
f 198/4/3 189/4/3 197/4/3
f 199/5/3 190/5/3 189/5/3
f 199/4/3 189/4/3 198/4/3
f 200/1/3 191/1/3 190/1/3
f 200/5/3 190/5/3 199/5/3
f 201/2/3 185/2/3 184/2/3
f 201/4/3 193/4/3 185/4/3
f 202/2/3 194/2/3 193/2/3
f 202/4/3 193/4/3 201/4/3
f 203/3/3 195/3/3 194/3/3
f 203/2/3 194/2/3 202/2/3
f 204/1/3 196/1/3 195/1/3
f 204/3/3 195/3/3 203/3/3
f 205/3/3 197/3/3 196/3/3
f 205/1/3 196/1/3 204/1/3
f 206/2/3 198/2/3 197/2/3
f 206/3/3 197/3/3 205/3/3
f 207/4/3 199/4/3 198/4/3
f 207/2/3 198/2/3 206/2/3
f 207/4/3 200/4/3 199/4/3
f 208/4/3 200/4/3 207/4/3
f 209/1/3 191/1/3 200/1/3
f 209/4/3 200/4/3 208/4/3
f 210/1/3 191/1/3 209/1/3
f 211/1/3 184/1/3 183/1/3
f 211/2/3 201/2/3 184/2/3
f 212/3/3 202/3/3 201/3/3
f 212/2/3 201/2/3 211/2/3
f 213/1/3 203/1/3 202/1/3
f 213/3/3 202/3/3 212/3/3
f 213/1/3 204/1/3 203/1/3
f 214/1/3 204/1/3 213/1/3
f 215/1/3 206/1/3 205/1/3
f 216/3/3 207/3/3 206/3/3
f 216/1/3 206/1/3 215/1/3
f 217/4/3 208/4/3 207/4/3
f 217/3/3 207/3/3 216/3/3
f 218/1/3 209/1/3 208/1/3
f 218/4/3 208/4/3 217/4/3
f 219/1/3 212/1/3 211/1/3
f 219/1/3 213/1/3 212/1/3
f 219/1/3 211/1/3 183/1/3
f 220/1/3 213/1/3 219/1/3
f 221/1/3 217/1/3 216/1/3
f 222/2/3 218/2/3 217/2/3
f 222/1/3 217/1/3 221/1/3
f 223/1/3 209/1/3 218/1/3
f 223/2/3 218/2/3 222/2/3
f 224/1/3 223/1/3 222/1/3
f 225/1/3 209/1/3 223/1/3
f 225/1/3 223/1/3 224/1/3
f 226/1/4 227/1/4 231/1/4
f 231/1/4 227/1/4 232/1/4
f 228/1/4 229/1/4 233/1/4
f 233/1/4 229/1/4 234/1/4
f 234/1/4 229/1/4 235/1/4
f 230/1/4 231/1/4 238/1/4
f 231/2/4 232/2/4 239/2/4
f 238/1/4 231/1/4 239/1/4
f 232/1/4 227/1/4 240/1/4
f 239/2/4 232/2/4 240/2/4
f 233/2/4 234/2/4 241/2/4
f 234/3/4 235/3/4 241/3/4
f 235/1/4 236/1/4 242/1/4
f 241/3/4 235/3/4 242/3/4
f 242/1/4 236/1/4 243/1/4
f 243/1/4 236/1/4 244/1/4
f 237/1/4 238/1/4 245/1/4
f 238/3/4 239/3/4 246/3/4
f 245/1/4 238/1/4 246/1/4
f 239/4/4 240/4/4 247/4/4
f 246/3/4 239/3/4 247/3/4
f 240/1/4 227/1/4 248/1/4
f 247/4/4 240/4/4 248/4/4
f 248/1/4 227/1/4 249/1/4
f 241/4/4 242/4/4 251/4/4
f 242/2/4 243/2/4 251/2/4
f 243/3/4 244/3/4 252/3/4
f 251/2/4 243/2/4 252/2/4
f 244/1/4 245/1/4 253/1/4
f 252/3/4 244/3/4 253/3/4
f 245/3/4 246/3/4 254/3/4
f 253/1/4 245/1/4 254/1/4
f 246/2/4 247/2/4 255/2/4
f 254/3/4 246/3/4 255/3/4
f 248/4/4 249/4/4 256/4/4
f 255/2/4 247/2/4 256/2/4
f 247/4/4 248/4/4 256/4/4
f 256/4/4 249/4/4 257/4/4
f 249/1/4 250/1/4 258/1/4
f 257/4/4 249/4/4 258/4/4
f 228/1/4 233/1/4 259/1/4
f 233/2/4 241/2/4 260/2/4
f 259/1/4 233/1/4 260/1/4
f 251/4/4 252/4/4 261/4/4
f 260/2/4 241/2/4 261/2/4
f 241/4/4 251/4/4 261/4/4
f 261/4/4 252/4/4 262/4/4
f 253/2/4 254/2/4 263/2/4
f 262/4/4 252/4/4 263/4/4
f 252/2/4 253/2/4 263/2/4
f 254/2/4 255/2/4 263/2/4
f 256/4/4 257/4/4 264/4/4
f 263/2/4 255/2/4 264/2/4
f 255/4/4 256/4/4 264/4/4
f 257/5/4 258/5/4 265/5/4
f 258/1/4 250/1/4 265/1/4
f 265/1/4 250/1/4 266/1/4
f 261/2/4 262/2/4 268/2/4
f 260/1/4 261/1/4 268/1/4
f 263/4/4 264/4/4 269/4/4
f 268/2/4 262/2/4 269/2/4
f 262/4/4 263/4/4 269/4/4
f 269/4/4 264/4/4 270/4/4
f 270/4/4 264/4/4 271/4/4
f 264/4/4 257/4/4 272/4/4
f 271/4/4 264/4/4 272/4/4
f 257/5/4 265/5/4 273/5/4
f 272/4/4 257/4/4 273/4/4
f 265/2/4 266/2/4 274/2/4
f 273/5/4 265/5/4 274/5/4
f 266/1/4 267/1/4 275/1/4
f 274/2/4 266/2/4 275/2/4
f 275/1/4 267/1/4 276/1/4
f 260/1/4 268/1/4 278/1/4
f 268/3/4 269/3/4 279/3/4
f 278/1/4 268/1/4 279/1/4
f 269/2/4 270/2/4 280/2/4
f 279/3/4 269/3/4 280/3/4
f 270/4/4 271/4/4 281/4/4
f 271/6/4 272/6/4 281/6/4
f 272/1/4 273/1/4 282/1/4
f 281/6/4 272/6/4 282/6/4
f 273/4/4 274/4/4 283/4/4
f 282/1/4 273/1/4 283/1/4
f 274/5/4 275/5/4 284/5/4
f 283/4/4 274/4/4 284/4/4
f 275/4/4 276/4/4 285/4/4
f 284/5/4 275/5/4 285/5/4
f 276/1/4 277/1/4 286/1/4
f 285/4/4 276/4/4 286/4/4
f 286/1/4 277/1/4 287/1/4
f 281/4/4 282/4/4 289/4/4
f 284/4/4 285/4/4 289/4/4
f 286/5/4 287/5/4 289/5/4
f 285/5/4 286/5/4 289/5/4
f 283/4/4 284/4/4 289/4/4
f 282/4/4 283/4/4 289/4/4
f 289/5/4 287/5/4 290/5/4
f 287/1/4 288/1/4 291/1/4
f 290/5/4 287/5/4 291/5/4
f 279/1/4 280/1/4 293/1/4
f 280/2/4 270/2/4 294/2/4
f 293/1/4 280/1/4 294/1/4
f 289/4/4 290/4/4 295/4/4
f 270/4/4 281/4/4 295/4/4
f 281/4/4 289/4/4 295/4/4
f 295/4/4 290/4/4 296/4/4
f 296/4/4 290/4/4 297/4/4
f 297/4/4 290/4/4 298/4/4
f 290/2/4 291/2/4 299/2/4
f 298/4/4 290/4/4 299/4/4
f 291/1/4 288/1/4 300/1/4
f 299/2/4 291/2/4 300/2/4
f 300/1/4 288/1/4 301/1/4
f 292/1/4 293/1/4 302/1/4
f 293/3/4 294/3/4 302/3/4
f 294/2/4 270/2/4 303/2/4
f 302/3/4 294/3/4 303/3/4
f 270/4/4 295/4/4 304/4/4
f 303/2/4 270/2/4 304/2/4
f 295/6/4 296/6/4 305/6/4
f 304/4/4 295/4/4 305/4/4
f 296/1/4 297/1/4 306/1/4
f 305/6/4 296/6/4 306/6/4
f 297/4/4 298/4/4 307/4/4
f 306/1/4 297/1/4 307/1/4
f 307/4/4 298/4/4 308/4/4
f 308/4/4 298/4/4 309/4/4
f 299/1/4 300/1/4 310/1/4
f 309/4/4 298/4/4 310/4/4
f 298/1/4 299/1/4 310/1/4
f 310/1/4 300/1/4 311/1/4
f 292/1/4 302/1/4 313/1/4
f 302/2/4 303/2/4 314/2/4
f 313/1/4 302/1/4 314/1/4
f 307/4/4 308/4/4 315/4/4
f 314/2/4 303/2/4 315/2/4
f 305/4/4 306/4/4 315/4/4
f 303/4/4 304/4/4 315/4/4
f 304/4/4 305/4/4 315/4/4
f 306/4/4 307/4/4 315/4/4
f 315/4/4 308/4/4 316/4/4
f 316/4/4 308/4/4 317/4/4
f 317/4/4 308/4/4 318/4/4
f 308/2/4 309/2/4 319/2/4
f 318/4/4 308/4/4 319/4/4
f 309/1/4 310/1/4 320/1/4
f 319/2/4 309/2/4 320/2/4
f 320/1/4 310/1/4 321/1/4
f 314/4/4 315/4/4 322/4/4
f 315/4/4 316/4/4 322/4/4
f 316/2/4 317/2/4 323/2/4
f 322/4/4 316/4/4 323/4/4
f 323/2/4 317/2/4 324/2/4
f 324/2/4 317/2/4 325/2/4
f 317/4/4 318/4/4 326/4/4
f 325/2/4 317/2/4 326/2/4
f 326/4/4 318/4/4 327/4/4
f 318/5/4 319/5/4 328/5/4
f 327/4/4 318/4/4 328/4/4
f 319/1/4 320/1/4 329/1/4
f 328/5/4 319/5/4 329/5/4
f 313/2/4 314/2/4 330/2/4
f 314/4/4 322/4/4 330/4/4
f 322/2/4 323/2/4 331/2/4
f 330/4/4 322/4/4 331/4/4
f 323/3/4 324/3/4 332/3/4
f 331/2/4 323/2/4 332/2/4
f 324/1/4 325/1/4 333/1/4
f 332/3/4 324/3/4 333/3/4
f 325/3/4 326/3/4 334/3/4
f 333/1/4 325/1/4 334/1/4
f 326/2/4 327/2/4 335/2/4
f 334/3/4 326/3/4 335/3/4
f 327/4/4 328/4/4 336/4/4
f 335/2/4 327/2/4 336/2/4
f 328/4/4 329/4/4 336/4/4
f 336/4/4 329/4/4 337/4/4
f 329/1/4 320/1/4 338/1/4
f 337/4/4 329/4/4 338/4/4
f 338/1/4 320/1/4 339/1/4
f 312/1/4 313/1/4 340/1/4
f 313/2/4 330/2/4 340/2/4
f 330/3/4 331/3/4 341/3/4
f 340/2/4 330/2/4 341/2/4
f 331/1/4 332/1/4 342/1/4
f 341/3/4 331/3/4 342/3/4
f 332/1/4 333/1/4 342/1/4
f 342/1/4 333/1/4 343/1/4
f 334/1/4 335/1/4 344/1/4
f 335/3/4 336/3/4 345/3/4
f 344/1/4 335/1/4 345/1/4
f 336/4/4 337/4/4 346/4/4
f 345/3/4 336/3/4 346/3/4
f 337/1/4 338/1/4 347/1/4
f 346/4/4 337/4/4 347/4/4
f 340/1/4 341/1/4 348/1/4
f 341/1/4 342/1/4 348/1/4
f 312/1/4 340/1/4 348/1/4
f 348/1/4 342/1/4 349/1/4
f 345/1/4 346/1/4 350/1/4
f 346/2/4 347/2/4 351/2/4
f 350/1/4 346/1/4 351/1/4
f 347/1/4 338/1/4 352/1/4
f 351/2/4 347/2/4 352/2/4
f 351/1/4 352/1/4 353/1/4
f 352/1/4 338/1/4 354/1/4
f 353/1/4 352/1/4 354/1/4
f 359/1/5 356/1/5 355/1/5
f 360/1/5 356/1/5 359/1/5
f 361/1/5 358/1/5 357/1/5
f 362/1/5 358/1/5 361/1/5
f 367/1/5 364/1/5 363/1/5
f 368/1/5 364/1/5 367/1/5
f 369/1/5 366/1/5 365/1/5
f 370/1/5 366/1/5 369/1/5
f 373/1/5 372/1/5 371/1/5
f 374/1/5 372/1/5 373/1/5
f 379/1/5 376/1/5 375/1/5
f 380/1/5 376/1/5 379/1/5
f 381/1/5 378/1/5 377/1/5
f 382/1/5 378/1/5 381/1/5
f 387/1/5 384/1/5 383/1/5
f 388/1/5 384/1/5 387/1/5
f 389/1/5 386/1/5 385/1/5
f 390/1/5 386/1/5 389/1/5
f 395/1/5 392/1/5 391/1/5
f 396/1/5 392/1/5 395/1/5
f 397/1/5 394/1/5 393/1/5
f 398/1/5 394/1/5 397/1/5
f 399/1/6 400/1/6 403/1/6
f 403/1/6 400/1/6 404/1/6
f 401/1/6 402/1/6 405/1/6
f 405/1/6 402/1/6 406/1/6
f 407/1/6 408/1/6 411/1/6
f 411/1/6 408/1/6 412/1/6
f 409/1/6 410/1/6 413/1/6
f 413/1/6 410/1/6 414/1/6
f 415/1/6 416/1/6 419/1/6
f 419/1/6 416/1/6 420/1/6
f 417/1/6 418/1/6 421/1/6
f 421/1/6 418/1/6 422/1/6
f 423/1/6 424/1/6 427/1/6
f 427/1/6 424/1/6 428/1/6
f 425/1/6 426/1/6 429/1/6
f 429/1/6 426/1/6 430/1/6
f 431/1/6 432/1/6 435/1/6
f 435/1/6 432/1/6 436/1/6
f 433/1/6 434/1/6 437/1/6
f 437/1/6 434/1/6 438/1/6
f 439/1/6 440/1/6 443/1/6
f 443/1/6 440/1/6 444/1/6
f 441/1/6 442/1/6 445/1/6
f 445/1/6 442/1/6 446/1/6
f 447/1/6 448/1/6 449/1/6
f 449/1/6 448/1/6 450/1/6
